<svg width="36" height="36" viewBox="0 0 36 36" fill="none" xmlns="http://www.w3.org/2000/svg">
<path d="M19.125 23.88H20.1C21.075 23.88 21.885 23.01 21.885 21.96C21.885 20.655 21.42 20.4 20.655 20.13L19.14 19.605V23.88H19.125Z" fill="white"/>
<path d="M17.9551 2.85C9.6751 2.88 2.9701 9.615 3.0001 17.895C3.0301 26.175 9.7651 32.88 18.0451 32.85C26.3251 32.82 33.0301 26.085 33.0001 17.805C32.9701 9.525 26.2351 2.835 17.9551 2.85ZM21.3901 18C22.5601 18.405 24.1351 19.275 24.1351 21.96C24.1351 24.27 22.3201 26.13 20.1001 26.13H19.1251V27C19.1251 27.615 18.6151 28.125 18.0001 28.125C17.3851 28.125 16.8751 27.615 16.8751 27V26.13H16.3351C13.8751 26.13 11.8801 24.06 11.8801 21.51C11.8801 20.895 12.3901 20.385 13.0051 20.385C13.6201 20.385 14.1301 20.895 14.1301 21.51C14.1301 22.815 15.1201 23.88 16.3351 23.88H16.8751V18.81L14.6101 18C13.4401 17.595 11.8651 16.725 11.8651 14.04C11.8651 11.73 13.6801 9.87 15.9001 9.87H16.8751V9C16.8751 8.385 17.3851 7.875 18.0001 7.875C18.6151 7.875 19.1251 8.385 19.1251 9V9.87H19.6651C22.1251 9.87 24.1201 11.94 24.1201 14.49C24.1201 15.105 23.6101 15.615 22.9951 15.615C22.3801 15.615 21.8701 15.105 21.8701 14.49C21.8701 13.185 20.8801 12.12 19.6651 12.12H19.1251V17.19L21.3901 18Z" fill="white"/>
<path d="M14.1299 14.055C14.1299 15.36 14.5949 15.615 15.3599 15.885L16.8749 16.41V12.12H15.8999C14.9249 12.12 14.1299 12.99 14.1299 14.055Z" fill="white"/>
</svg>
