<svg width="30" height="30" viewBox="0 0 30 30" fill="none" xmlns="http://www.w3.org/2000/svg">
<path d="M15.4434 27.7929C22.5087 27.7929 28.2363 22.0653 28.2363 14.9999C28.2363 7.93453 22.5087 2.20692 15.4434 2.20692C8.378 2.20692 2.65039 7.93453 2.65039 14.9999C2.65039 22.0653 8.378 27.7929 15.4434 27.7929Z" fill="black"/>
<path d="M18.1611 7.89268H12.7312C10.3091 7.89268 8.3418 9.85996 8.3418 12.2821V17.712C8.3418 20.1341 10.3091 22.1014 12.7312 22.1014H18.1611C20.5832 22.1014 22.5505 20.1341 22.5505 17.712V12.2821C22.5505 9.85996 20.5832 7.89268 18.1611 7.89268ZM20.9642 17.7177C20.9642 19.2642 19.7076 20.5265 18.1554 20.5265H12.7255C11.179 20.5265 9.91675 19.2699 9.91675 17.7177V12.2878C9.91675 10.7413 11.1733 9.47901 12.7255 9.47901H18.1554C19.702 9.47901 20.9642 10.7356 20.9642 12.2878V17.7177Z" fill="white"/>
<path d="M15.4437 11.3667C13.4424 11.3667 11.8105 12.9985 11.8105 14.9999C11.8105 17.0013 13.4424 18.6331 15.4437 18.6331C17.4451 18.6331 19.077 17.0013 19.077 14.9999C19.077 12.9985 17.4451 11.3667 15.4437 11.3667ZM15.4437 17.2059C14.227 17.2059 13.2377 16.2166 13.2377 14.9999C13.2377 13.7831 14.227 12.7938 15.4437 12.7938C16.6605 12.7938 17.6498 13.7831 17.6498 14.9999C17.6498 16.2166 16.6605 17.2059 15.4437 17.2059Z" fill="white"/>
<path d="M19.3543 11.765C19.689 11.7105 19.9162 11.395 19.8616 11.0602C19.8071 10.7255 19.4916 10.4983 19.1569 10.5529C18.8221 10.6074 18.595 10.9229 18.6495 11.2576C18.704 11.5924 19.0195 11.8195 19.3543 11.765Z" fill="white"/>
</svg>
