<svg width="31" height="30" viewBox="0 0 31 30" fill="none" xmlns="http://www.w3.org/2000/svg">
<g clip-path="url(#clip0_206_910)">
<path d="M15.5009 29.5554C23.5397 29.5554 30.0564 23.0387 30.0564 14.9999C30.0564 6.96108 23.5397 0.444336 15.5009 0.444336C7.46206 0.444336 0.945312 6.96108 0.945312 14.9999C0.945312 23.0387 7.46206 29.5554 15.5009 29.5554Z" fill="black"/>
<path d="M12.5687 23.3882C19.6848 23.3882 23.5662 17.5013 23.5662 12.3907C23.5662 12.2182 23.5662 12.0672 23.5447 11.8947C24.2994 11.3556 24.9463 10.6656 25.4639 9.88927C24.7738 10.1912 24.0191 10.4068 23.2428 10.4931C24.0406 10.0187 24.6444 9.26392 24.9463 8.35824C24.1916 8.81108 23.3722 9.11297 22.4881 9.30705C21.7765 8.55231 20.7845 8.07791 19.6632 8.07791C17.5284 8.07791 15.8033 9.80301 15.8033 11.9378C15.8033 12.2397 15.8464 12.5416 15.9111 12.8219C12.6981 12.671 9.85168 11.1184 7.95406 8.78952C7.63061 9.35017 7.43653 10.0187 7.43653 10.7303C7.43653 12.0672 8.12657 13.2532 9.16163 13.9433C8.53628 13.9217 7.9325 13.7492 7.41497 13.4689C7.41497 13.4904 7.41497 13.4904 7.41497 13.512C7.41497 15.388 8.75192 16.9406 10.5202 17.3072C10.1967 17.3935 9.85168 17.4366 9.50666 17.4366C9.24789 17.4366 9.01069 17.415 8.77349 17.3719C9.26945 18.9029 10.6927 20.0243 12.3746 20.0458C11.0592 21.0809 9.37727 21.7062 7.56591 21.7062C7.26402 21.7062 6.94056 21.6847 6.63867 21.6631C8.34221 22.7413 10.3692 23.3882 12.5687 23.3882Z" fill="white"/>
</g>
<defs>
<clipPath id="clip0_206_910">
<rect width="29.1111" height="29.1111" fill="white" transform="translate(0.945312 0.444336)"/>
</clipPath>
</defs>
</svg>
