<svg width="30" height="30" viewBox="0 0 30 30" fill="none" xmlns="http://www.w3.org/2000/svg">
<g clip-path="url(#clip0_206_906)">
<path d="M29.1111 14.9999C29.1111 6.9566 22.5988 0.444336 14.5556 0.444336C6.51226 0.444336 0 6.9566 0 14.9999C0 22.2669 5.32626 28.2832 12.2914 29.3829V19.2048H8.58239V14.9999H12.2914V11.7869C12.2914 8.14261 14.4477 6.13718 17.7686 6.13718C19.3643 6.13718 21.0247 6.41751 21.0247 6.41751V9.9971H19.1918C17.3804 9.9971 16.8198 11.1184 16.8198 12.2613V14.9999H20.8522L20.2053 19.2048H16.8198V29.3829C23.7849 28.2832 29.1111 22.2669 29.1111 14.9999Z" fill="black"/>
<path d="M20.2265 19.2048L20.8734 14.9999H16.8194V12.2613C16.8194 11.1184 17.3801 9.99711 19.1914 9.99711H21.0243V6.41752C21.0243 6.41752 19.3639 6.13719 17.7682 6.13719C14.4474 6.13719 12.291 8.14262 12.291 11.7869V14.9999H8.58203V19.2048H12.291V29.383C13.0242 29.4908 13.8005 29.5555 14.5552 29.5555C15.3315 29.5555 16.0862 29.4908 16.8194 29.383V19.2048H20.2265Z" fill="white"/>
</g>
<defs>
<clipPath id="clip0_206_906">
<rect width="29.1111" height="29.1111" fill="white" transform="translate(0 0.444336)"/>
</clipPath>
</defs>
</svg>
