<svg width="36" height="36" viewBox="0 0 36 36" fill="none" xmlns="http://www.w3.org/2000/svg">
<path d="M30.9301 13.05C29.3701 6.105 23.3101 3 18.0001 3C18.0001 3 18.0001 3 17.9851 3C12.6901 3 6.64511 6.105 5.07011 13.035C3.30011 20.775 8.04011 27.33 12.3301 31.47C13.9201 33 15.9601 33.765 18.0001 33.765C20.0401 33.765 22.0801 33 23.6551 31.47C27.9451 27.33 32.6851 20.79 30.9301 13.05ZM22.1251 17.625H19.1251V20.625C19.1251 21.24 18.6151 21.75 18.0001 21.75C17.3851 21.75 16.8751 21.24 16.8751 20.625V17.625H13.8751C13.2601 17.625 12.7501 17.115 12.7501 16.5C12.7501 15.885 13.2601 15.375 13.8751 15.375H16.8751V12.375C16.8751 11.76 17.3851 11.25 18.0001 11.25C18.6151 11.25 19.1251 11.76 19.1251 12.375V15.375H22.1251C22.7401 15.375 23.2501 15.885 23.2501 16.5C23.2501 17.115 22.7401 17.625 22.1251 17.625Z" fill="white"/>
</svg>
